<svg width="900" height="450" viewBox="0 0 900 450" fill="none" xmlns="http://www.w3.org/2000/svg">
<path d="M528.904 185.461C530.351 185.461 531.798 185.943 533.004 187.148C534.209 188.113 534.691 189.56 534.691 191.248C534.691 194.865 533.003 196.794 529.628 196.794C526.011 196.794 524.323 195.106 524.323 191.73C524.323 191.007 524.323 190.524 524.564 190.042C524.806 189.56 525.047 189.078 525.288 188.354C523.118 188.596 521.912 189.56 521.188 191.007C520.465 192.453 520.225 194.623 520.225 197.034C520.225 199.204 520.465 200.893 520.465 201.857C524.564 203.786 527.699 206.439 530.11 209.573C532.521 212.708 533.485 216.565 533.485 220.664C533.485 226.933 530.592 232.238 524.564 236.096C519.26 239.712 513.232 241.642 506.48 241.642C501.658 241.642 497.318 240.918 492.978 239.23C489.361 239.23 486.468 239.713 484.298 240.918C481.404 242.365 479.957 245.017 479.957 248.634C479.957 250.081 481.163 251.287 483.815 252.251C486.227 253.215 491.049 253.697 498.282 253.697H507.204C516.366 253.697 523.358 254.903 528.181 257.314C534.209 260.449 537.103 265.513 537.103 272.746C537.102 280.462 534.45 286.249 528.904 290.348C523.359 294.447 516.366 296.616 507.686 296.616C497.318 296.616 488.878 294.929 482.609 291.312C476.34 287.937 473.206 283.837 473.206 279.497C473.206 276.604 474.894 274.193 478.27 272.264C480.681 270.817 484.298 269.612 489.361 268.165C484.78 266.477 481.404 264.789 479.234 262.86C476.341 260.208 474.652 256.832 474.652 252.733C474.652 248.393 475.858 244.776 478.511 242.124C481.404 238.99 485.021 237.783 489.843 237.783C486.467 236.095 484.056 233.926 482.127 231.273C480.198 228.621 479.234 225.245 479.234 221.388C479.234 214.878 482.128 209.091 488.155 204.51C493.701 200.17 499.729 198.24 506.239 198.24C508.168 198.24 510.339 198.482 512.509 198.964C514.679 199.446 516.607 200.169 518.536 200.893V197.275C518.536 192.453 519.501 189.319 521.188 187.631C522.876 186.184 525.529 185.461 528.904 185.461ZM508.168 267.441C498.523 267.441 491.772 268.647 488.155 270.817C485.262 272.746 483.574 275.881 483.574 280.462C483.574 284.802 484.78 288.178 487.191 290.348C491.29 293.482 498.283 295.17 508.409 295.17C515.402 295.17 520.707 293.723 524.564 290.83C528.422 287.937 530.352 284.32 530.352 280.221C530.352 275.157 528.663 271.782 525.528 270.094C522.394 268.406 516.607 267.441 508.168 267.441ZM380.858 199.686H398.701V204.267H380.858V246.463C380.858 252.009 381.1 255.626 381.582 257.313C382.547 261.171 384.958 263.1 388.333 263.1C392.432 263.1 395.326 260.93 396.531 256.349C397.496 253.214 397.978 247.427 397.978 238.747V231.272H399.425V238.265C399.425 240.676 399.425 242.846 399.666 245.016C399.666 252.249 398.943 257.314 397.255 259.966C395.085 263.582 390.503 265.511 383.993 265.511C377.724 265.511 373.142 264.064 370.249 260.93C367.356 258.036 365.909 253.696 365.909 248.15V204.025H353.612V202.579C362.051 200.409 368.561 195.587 372.901 187.871C376.277 181.602 378.206 174.609 378.206 166.894H380.858V199.686ZM240.045 197.517C246.796 197.517 252.342 199.446 256.682 203.304C263.192 209.091 266.567 218.494 266.567 231.755H226.783V231.996C226.783 243.088 227.988 251.286 230.641 256.108C233.293 261.172 237.393 263.583 242.697 263.583C248.484 263.583 253.306 261.654 257.646 257.796C262.951 253.215 265.603 246.705 265.604 238.748H266.809C266.809 246.464 264.397 252.974 259.334 257.796C254.271 262.859 247.76 265.27 239.562 265.271C232.57 265.271 226.301 262.618 220.755 257.313C214.004 251.044 210.628 243.088 210.628 232.961C210.628 222.111 214.003 213.189 220.514 206.438C226.301 200.651 232.811 197.517 240.045 197.517ZM434.627 197.757C442.343 197.757 448.129 199.203 451.987 202.097C455.604 204.749 457.292 207.883 457.292 211.741V245.98C457.292 252.249 457.533 256.107 457.774 257.554C458.498 261.17 460.427 262.858 463.32 262.858C465.973 262.858 467.902 261.412 468.866 258.76C469.831 255.866 470.312 252.008 470.312 246.704V236.336H472.241V243.087C472.241 245.257 472.241 247.427 472.482 249.356C472.482 255.384 471.759 259.483 470.312 261.412C468.384 264.064 464.526 265.269 458.98 265.27C454.399 265.27 451.264 264.546 449.094 262.858C446.442 260.929 444.754 257.795 444.03 253.455C441.86 258.518 438.485 261.894 434.145 263.582C431.492 264.546 428.116 265.028 423.776 265.028C419.437 265.028 415.579 264.064 412.444 261.895C408.104 259.001 405.692 254.902 405.692 249.115C405.692 243.57 407.863 238.747 412.203 234.889C416.543 231.272 421.848 229.102 427.876 228.62C434.145 228.138 438.244 227.173 440.414 226.209C442.343 225.486 443.308 222.833 443.308 218.975V209.812C443.308 205.713 442.584 202.82 441.378 201.373C440.172 199.927 437.279 199.203 432.939 199.203C429.323 199.203 426.187 199.926 423.535 201.373C420.883 202.82 419.196 204.508 418.231 206.919C418.714 206.919 419.196 206.678 419.678 206.678C421.607 206.678 423.294 207.401 424.5 209.089C425.706 210.536 426.429 212.465 426.429 214.394C426.429 216.564 425.705 218.493 424.018 219.939C422.571 221.386 420.642 222.109 418.472 222.109C417.025 222.109 415.82 221.628 414.855 221.146C411.721 219.217 410.275 216.805 410.274 213.671C410.274 212.224 410.515 210.536 411.238 208.607C412.685 204.508 416.302 201.614 422.089 199.686C426.188 198.239 430.528 197.757 434.627 197.757ZM634.997 197.757C642.713 197.757 648.5 199.203 652.357 202.097C655.974 204.749 657.662 207.883 657.662 211.741V245.98C657.662 252.249 657.903 256.107 658.145 257.554C658.868 261.17 660.797 262.858 663.69 262.858C666.342 262.858 668.271 261.412 669.235 258.76C670.2 255.866 670.683 252.008 670.683 246.704V236.336H672.611V243.087C672.611 245.257 672.611 247.427 672.853 249.356C672.853 255.384 672.129 259.483 670.683 261.412C668.754 264.064 664.895 265.27 659.35 265.27C654.769 265.269 651.634 264.546 649.464 262.858C646.812 260.929 645.124 257.795 644.4 253.455C642.23 258.518 638.855 261.894 634.515 263.582C631.862 264.546 628.487 265.028 624.146 265.028C619.807 265.028 615.949 264.064 612.814 261.895C608.474 259.001 606.063 254.902 606.062 249.115C606.062 243.57 608.233 238.747 612.573 234.889C616.913 231.272 622.218 229.102 628.246 228.62C634.515 228.138 638.614 227.173 640.784 226.209C642.713 225.486 643.677 222.832 643.677 218.975V209.812C643.677 205.713 642.954 202.82 641.748 201.373C640.542 199.927 637.649 199.203 633.31 199.203C629.693 199.203 626.558 199.926 623.905 201.373C621.253 202.82 619.565 204.508 618.601 206.919C619.083 206.919 619.566 206.678 620.048 206.678C621.977 206.678 623.665 207.401 624.87 209.089C626.076 210.536 626.799 212.465 626.799 214.394C626.799 216.564 626.076 218.493 624.388 219.939C622.941 221.386 621.012 222.109 618.842 222.109C617.395 222.109 616.19 221.628 615.226 221.146C612.091 219.217 610.644 216.805 610.644 213.671C610.644 212.224 610.885 210.536 611.608 208.607C613.055 204.508 616.672 201.614 622.459 199.686C626.558 198.239 630.898 197.757 634.997 197.757ZM319.373 197.517C325.883 197.517 330.947 199.445 334.805 203.544C337.939 206.92 339.627 210.778 339.627 215.359V256.591C339.627 258.761 339.868 259.966 340.109 260.689C340.35 260.931 340.833 261.413 341.557 261.654C342.28 261.895 343.968 262.136 346.138 262.377C348.308 262.618 350.477 262.618 352.406 262.618V264.065H312.622V262.618C314.31 262.618 316.239 262.618 318.409 262.377C320.579 262.136 322.508 261.654 324.195 261.172C324.919 260.69 325.16 259.243 325.16 256.591V217.047C325.16 211.984 324.677 208.367 323.954 205.715C322.507 201.375 320.096 199.204 316.479 199.204C311.657 199.204 307.8 202.098 304.906 208.126C302.495 212.707 300.807 218.735 299.843 225.969V256.591C299.843 258.761 300.084 259.966 300.325 260.689C300.566 260.931 301.048 261.413 301.771 261.654C302.495 261.895 303.942 262.136 305.871 262.377C307.8 262.618 309.728 262.618 311.175 262.618V264.065H271.632V262.618C273.802 262.618 276.213 262.618 278.383 262.377C280.553 262.136 282.482 261.654 284.411 261.172C285.134 260.69 285.376 259.243 285.376 256.591V206.438C285.376 205.473 285.135 204.75 284.652 204.268L283.688 202.821C282.723 202.098 278.624 201.615 271.873 201.615V200.169L299.843 197.758V217.529C300.566 213.189 301.772 209.09 303.941 205.715C306.835 200.892 309.97 198.481 313.104 197.999C316.239 197.758 318.408 197.517 319.373 197.517ZM443.066 226.45C441.861 228.138 439.932 229.102 437.521 229.584C435.109 230.066 432.698 230.308 430.528 230.549C427.635 231.272 425.224 232.96 423.295 235.612C421.125 238.747 420.16 243.087 420.16 248.633C420.16 254.661 420.642 258.76 421.848 260.93C423.053 263.1 424.982 264.064 427.394 264.064C431.251 264.064 434.868 262.377 438.003 259.242C441.379 255.625 443.066 251.767 443.066 247.186V226.45ZM589.426 197.757C591.355 197.757 593.525 198.48 595.695 199.686C597.865 200.891 599.553 202.579 600.276 204.508C601 206.437 601.481 208.125 601.481 209.812C601.481 213.912 599.794 216.805 596.418 218.252C595.695 218.734 594.489 218.975 593.043 218.975C590.873 218.975 589.185 218.251 587.738 216.805C586.292 215.358 585.567 213.188 585.567 210.295C585.567 208.366 586.292 206.678 587.738 204.749C589.185 202.82 590.873 202.097 592.561 202.579C591.837 200.409 590.149 199.203 587.015 199.203C584.121 199.203 580.986 201.374 578.093 205.714C574.235 211.26 572.307 218.493 572.307 227.414V256.349C572.307 258.518 572.547 259.724 572.788 260.447C573.029 260.688 573.512 261.171 574.235 261.412C576.405 262.135 580.987 262.617 587.738 262.617V264.064H542.407V262.617C545.301 262.617 548.194 262.617 550.605 262.376C553.017 262.135 555.187 261.653 556.875 261.171C557.598 260.689 557.839 259.242 557.839 256.59V208.125C557.839 205.955 557.598 204.749 557.116 204.267C556.393 203.302 555.669 202.579 555.187 202.338C553.257 201.856 549.158 201.614 542.407 201.614V200.168L572.307 197.757V217.528C572.789 213.188 574.235 209.33 576.646 205.473C580.022 200.409 584.362 197.757 589.426 197.757ZM643.195 226.45C641.99 228.138 640.06 229.102 637.649 229.584C635.238 230.066 632.827 230.308 630.657 230.549C627.764 231.272 625.352 232.96 623.423 235.612C621.253 238.747 620.289 243.087 620.289 248.633C620.289 254.661 620.771 258.76 621.977 260.93C623.182 263.1 625.111 264.064 627.522 264.064C631.38 264.064 634.997 262.377 638.132 259.242C641.749 255.625 643.195 251.767 643.195 247.186V226.45ZM759.896 197.273C766.166 197.273 771.47 199.203 775.087 203.302C778.221 206.677 779.909 210.535 779.909 215.116V256.348C779.909 258.276 780.151 259.722 780.392 260.205C780.633 260.687 781.116 260.929 781.839 261.411C782.562 261.652 784.009 261.894 785.938 262.135C787.866 262.376 789.554 262.375 791.001 262.375V263.822H754.351V262.375C756.762 262.375 758.691 262.376 760.138 262.135C761.584 261.894 763.031 261.411 764.478 260.688C765.201 260.205 765.442 258.759 765.442 256.348V217.045C765.442 212.223 764.961 208.365 764.237 205.713C762.791 201.373 760.379 199.202 757.003 199.202C753.386 199.202 750.252 200.89 747.841 204.266C745.189 208.124 743.018 215.116 741.571 225.243V256.348C741.571 258.517 741.813 259.723 742.054 260.446C742.295 260.687 742.778 260.929 743.501 261.411C744.224 261.652 745.43 261.894 747.358 262.135C749.287 262.376 750.975 262.616 752.663 262.616V264.063H715.772V262.616C719.63 262.616 722.765 262.376 724.935 261.411L726.14 260.929C726.863 260.446 727.104 259 727.104 256.348V217.045C727.104 211.982 726.623 208.365 725.899 205.713C724.453 201.373 722.041 199.202 718.424 199.202C713.843 199.202 710.226 202.096 707.574 208.124C705.886 212.223 704.439 218.251 703.475 225.967V256.589C703.475 258.759 703.716 259.964 703.957 260.688C704.198 260.929 704.681 261.411 705.404 261.652C706.128 261.893 707.574 262.134 709.503 262.375C711.432 262.616 713.12 262.616 714.566 262.616V264.063H675.023V262.616C677.193 262.616 679.363 262.616 681.533 262.375C683.703 262.134 685.633 261.652 687.562 261.17C688.285 260.688 688.525 259.241 688.525 256.589V206.677C688.525 205.712 688.284 204.989 687.802 204.507C687.078 203.543 686.355 202.819 685.873 202.578C684.426 202.096 680.809 201.854 675.264 201.854V200.408L703.233 197.756V217.527C703.957 212.464 705.163 208.606 706.609 205.713C709.021 200.891 712.637 198.238 717.219 197.756C718.183 197.756 719.148 197.515 719.871 197.515H721.559C728.31 197.515 733.132 199.444 736.749 203.061C739.642 206.677 741.331 211.017 741.331 216.562C742.054 211.74 743.26 208.124 744.947 205.23C747.6 200.89 750.975 198.238 755.557 197.756C756.28 197.756 757.003 197.756 757.968 197.515C758.932 197.515 759.414 197.274 759.896 197.273ZM169.879 164C182.176 164 191.821 166.894 199.055 172.439C205.806 177.744 209.182 184.737 209.182 193.417C209.182 199.204 206.529 204.749 201.466 209.571C194.956 215.599 186.275 218.493 175.425 218.493H151.555V253.696C151.555 256.59 151.795 258.519 152.277 259.483C152.519 259.966 153.242 260.447 154.447 260.688C155.653 261.171 158.065 261.653 161.682 261.895C165.298 262.136 170.362 262.377 176.631 262.377V263.823H109.6V262.377C114.904 262.377 119.244 262.136 122.62 261.895C125.996 261.653 128.407 261.171 129.612 260.688C130.817 260.206 131.541 259.725 131.782 259.483C132.264 258.76 132.506 256.831 132.506 253.696V173.886C132.506 170.992 132.264 169.304 131.782 168.34C131.541 167.858 131.059 167.617 129.854 167.135C126.96 165.929 119.968 165.447 109.6 165.447V164H169.879ZM506.239 199.446C501.658 199.446 498.282 201.375 496.112 204.991C493.942 208.608 492.978 213.672 492.978 219.94C492.978 227.174 493.942 232.479 495.63 235.613C497.318 238.748 500.935 240.195 506.239 240.195C511.062 240.195 514.196 238.507 516.366 235.372C518.536 231.996 519.501 226.933 519.501 219.94C519.501 213.43 518.536 208.367 516.849 205.232C514.92 201.375 511.303 199.446 506.239 199.446ZM241.974 199.445C236.428 199.445 232.329 201.857 230.159 206.92C227.748 211.983 226.783 219.699 226.783 230.309H253.306C253.306 220.182 252.341 212.707 250.653 207.402C248.966 202.098 246.073 199.445 241.974 199.445ZM158.547 165.447C156.377 165.447 154.689 165.688 153.725 165.929C152.76 166.17 152.036 166.894 151.795 167.858C151.795 168.823 151.555 170.752 151.555 173.886V217.287H167.227C175.907 217.287 181.935 215.117 185.311 210.536C188.204 206.678 189.651 200.65 189.651 192.211C189.651 183.29 187.722 176.779 183.864 172.198C180.006 167.617 174.219 165.447 166.021 165.447H158.547Z" fill="#2D2D2D"/>
</svg>
