<svg width="900" height="450" viewBox="0 0 900 450" fill="none" xmlns="http://www.w3.org/2000/svg">
<path d="M238.036 243.228C209.973 242.927 191.861 229.619 191.861 209.316C191.861 189.013 209.973 175.685 238.036 175.403C266.099 175.705 284.211 189.013 284.211 209.316C284.211 229.619 266.078 242.927 238.036 243.228ZM238.9 159C238.9 159 238.337 159 238.056 159C237.775 159 237.212 159 237.212 159C198.816 159.623 172 180.308 172 209.316C172 238.323 198.816 259.009 237.192 259.632H238.9C277.275 259.009 304.092 238.323 304.092 209.316C304.092 180.308 277.275 159.623 238.9 159Z" fill="#2D2D2D"/>
<path d="M662.535 243.228C634.472 242.927 616.36 229.619 616.36 209.316C616.36 189.013 634.472 175.685 662.535 175.403C690.598 175.705 708.71 189.013 708.71 209.316C708.71 229.619 690.598 242.927 662.535 243.228ZM663.379 159C663.379 159 662.816 159 662.535 159C662.253 159 661.691 159 661.691 159C623.295 159.623 596.499 180.308 596.499 209.316C596.499 238.323 623.295 259.009 661.691 259.632H663.399C701.774 259.009 728.591 238.323 728.591 209.316C728.591 180.328 701.795 159.623 663.399 159H663.379Z" fill="#2D2D2D"/>
<path d="M521.337 243.228C493.274 242.927 475.162 229.619 475.162 209.316C475.162 189.013 493.274 175.685 521.337 175.403C549.399 175.705 567.512 189.013 567.512 209.316C567.512 229.619 549.379 242.927 521.337 243.228ZM522.181 159C522.181 159 521.618 159 521.337 159C521.055 159 520.492 159 520.492 159C502.199 159.302 486.54 164.146 475.162 172.288V163.704H455.301V291.072H475.162V246.344C486.56 254.486 502.199 259.33 520.492 259.632H522.201C560.576 259.009 587.393 238.323 587.393 209.316C587.393 180.328 560.576 159.643 522.201 159.02L522.181 159Z" fill="#2D2D2D"/>
<path d="M379.697 243.228C351.634 242.927 333.522 229.619 333.522 209.316C333.522 189.013 351.634 175.685 379.697 175.403C407.759 175.705 425.871 189.013 425.871 209.316C425.871 229.619 407.739 242.927 379.697 243.228ZM380.541 159C380.541 159 379.978 159 379.697 159C379.415 159 378.852 159 378.852 159C360.559 159.302 344.9 164.146 333.522 172.288V163.704H313.641V291.072H333.522V246.344C344.92 254.486 360.559 259.33 378.852 259.632H380.561C418.936 259.009 445.753 238.323 445.753 209.316C445.753 180.328 418.936 159.643 380.561 159.02L380.541 159Z" fill="#2D2D2D"/>
</svg>
