<svg width="900" height="450" viewBox="0 0 900 450" fill="none" xmlns="http://www.w3.org/2000/svg">
<path d="M341.579 178.299V231.429C341.579 246.52 334.085 254.572 320.467 254.572C306.772 254.572 299.233 246.288 299.233 230.785V178.357H280.393V231.429C280.393 257.542 294.909 272.506 320.219 272.506C345.768 272.506 360.42 257.255 360.42 230.663V178.299H341.579ZM410.897 178.299L369.977 271.059H389.209L397.108 253.094L397.673 251.748H440.183L448.52 271.059H468.275L427.735 178.848L427.371 178.299L410.897 178.299ZM522.92 178.299L501.835 242.124L481.309 178.347H461.258L493.624 271.117H509.226L530.354 210.175L551.466 271.117H567.2L599.487 178.347H579.949L559.381 242.124L538.29 178.299H522.92ZM707.294 178.299V270.98H725.886V178.299H707.294ZM174.022 178.305V271.112H192.868V233.419H235.421V271.112H254.272V178.305H235.421V215.744H192.868V178.305H174.022ZM614.682 178.367V271.048H684.824V254.15H633.274V231.17H667.553V214.266H633.274V195.266H683.028V178.367H614.682ZM418.88 201.786L432.316 232.859H432.269L433.183 235.002H404.679L405.582 232.859L418.88 201.786Z" fill="#232527"/>
</svg>
