<svg width="900" height="450" viewBox="0 0 900 450" fill="none" xmlns="http://www.w3.org/2000/svg">
<path d="M494.61 180.554C478.939 169.9 458.886 174.245 448.359 190.262C439.56 203.625 426.288 205.297 421.143 205.297C404.399 205.297 392.927 193.516 389.528 181.317C389.491 181.19 389.473 181.099 389.437 180.972C389.4 180.845 389.364 180.699 389.328 180.554C388 175.481 387.655 173.045 387.655 167.627C387.655 138.466 417.562 105.996 460.667 105.996C503.773 105.996 530.044 139.593 536.552 158.264C536.443 157.937 536.334 157.61 536.225 157.283C523.699 120.777 489.065 94.5059 448.305 94.5059C397 94.5059 355.385 136.103 355.385 187.426C355.385 233.295 388.473 272.565 434.36 272.565C470.958 272.565 495.556 252.039 506.846 223.75C513.045 208.279 508.645 190.098 494.592 180.554H494.61Z" fill="#003863"/>
<path d="M537.134 160.082C531.716 141.865 506.264 106.014 460.667 106.014C417.562 106.014 387.655 138.484 387.655 167.645C387.655 173.045 387.982 175.481 389.327 180.571C388.764 178.353 388.473 176.117 388.473 173.954C388.473 143.574 418.889 122.54 450.141 122.54C492.465 122.54 526.753 156.846 526.753 199.152C526.753 232.313 507.664 261.02 479.938 274.819C515.699 261.892 541.225 227.659 541.225 187.444C541.225 177.935 539.952 169.536 537.134 160.1V160.082Z" fill="#E4032E"/>
<path d="M494.61 180.554C478.939 169.9 458.886 174.245 448.359 190.262C439.56 203.625 426.288 205.297 421.143 205.297C404.399 205.297 392.927 193.516 389.528 181.317C389.491 181.19 389.473 181.099 389.437 180.972C389.4 180.845 389.364 180.699 389.328 180.554C388 175.481 387.655 173.045 387.655 167.627C387.655 138.466 417.562 105.996 460.667 105.996C503.773 105.996 530.044 139.593 536.552 158.265C536.443 157.937 536.334 157.61 536.225 157.283C523.699 120.777 489.065 94.5059 448.305 94.5059C397 94.5059 355.385 136.103 355.385 187.426C355.385 233.295 388.473 272.565 434.36 272.565C470.958 272.565 495.556 252.039 506.846 223.75C513.045 208.279 508.645 190.098 494.592 180.554H494.61Z" fill="#2C2C2C"/>
<path d="M537.134 160.082C531.716 141.865 506.264 106.014 460.667 106.014C417.562 106.014 387.655 138.484 387.655 167.645C387.655 173.045 387.982 175.481 389.327 180.571C388.764 178.353 388.473 176.117 388.473 173.954C388.473 143.574 418.889 122.54 450.141 122.54C492.465 122.54 526.753 156.846 526.753 199.152C526.753 232.313 507.664 261.02 479.938 274.819C515.699 261.892 541.225 227.659 541.225 187.444C541.225 177.935 539.952 169.536 537.134 160.1V160.082Z" fill="#606060"/>
<path d="M212.284 316.508V346.215H207.484V322.307L199.685 346.215H195.049L187.249 322.307V346.215H182.45V316.508H189.831L197.376 339.651L204.921 316.508H212.302H212.284Z" fill="#575656"/>
<path d="M223.683 318.2C223.683 319 223.374 319.69 222.756 320.309C222.138 320.927 221.411 321.218 220.538 321.218C219.666 321.218 218.938 320.909 218.32 320.309C217.702 319.69 217.393 319 217.393 318.2C217.393 317.345 217.702 316.618 218.32 316C218.938 315.382 219.666 315.091 220.538 315.091C221.411 315.091 222.138 315.4 222.756 316C223.374 316.6 223.683 317.345 223.683 318.2ZM218.138 346.197V324.854H223.029V346.197H218.138Z" fill="#575656"/>
<path d="M233.754 335.453V346.197H228.9V324.853H233.572V327.708C234.136 326.708 234.972 325.908 236.063 325.272C237.154 324.653 238.317 324.326 239.572 324.326C242.117 324.326 244.153 325.181 245.68 326.908C247.208 328.635 247.971 330.926 247.971 333.798V346.197H243.081V335.034C243.081 332.762 242.717 331.071 241.972 329.98C241.226 328.889 240.081 328.344 238.536 328.344C237.736 328.344 236.954 328.599 236.19 329.126C235.427 329.653 234.845 330.362 234.445 331.271C233.954 332.326 233.718 333.707 233.718 335.453H233.754Z" fill="#575656"/>
<path d="M259.225 318.2C259.225 319 258.916 319.69 258.298 320.309C257.68 320.927 256.953 321.218 256.08 321.218C255.208 321.218 254.48 320.909 253.862 320.309C253.244 319.709 252.935 319 252.935 318.2C252.935 317.345 253.244 316.618 253.862 316C254.48 315.382 255.208 315.091 256.08 315.091C256.953 315.091 257.68 315.4 258.298 316C258.916 316.618 259.225 317.345 259.225 318.2ZM253.699 346.197V324.854H258.589V346.197H253.699Z" fill="#575656"/>
<path d="M262.479 342.234L265.533 339.125C266.388 340.289 267.333 341.198 268.37 341.852C269.369 342.452 270.442 342.743 271.587 342.743C272.733 342.743 273.587 342.525 274.351 342.089C275.114 341.652 275.496 341.053 275.496 340.325C275.496 339.598 275.133 339.016 274.405 338.598C273.678 338.18 272.806 337.798 271.806 337.435C270.624 337.071 269.424 336.653 268.206 336.198C266.552 335.598 265.333 334.835 264.552 333.889C263.788 332.944 263.388 331.89 263.388 330.69C263.388 328.926 264.224 327.435 265.879 326.199C267.533 324.963 269.497 324.345 271.751 324.345C274.151 324.345 276.114 324.908 277.623 326.054C278.387 326.654 279.005 327.381 279.46 328.272L276.46 331.162C276.06 330.472 275.587 329.926 275.042 329.508C274.096 328.69 272.915 328.272 271.478 328.272C270.642 328.272 269.933 328.472 269.315 328.89C268.697 329.308 268.388 329.799 268.388 330.362C268.388 330.981 268.733 331.508 269.424 331.944C270.115 332.362 271.133 332.78 272.478 333.18C272.969 333.326 273.515 333.489 274.151 333.689C276.242 334.38 277.823 335.253 278.896 336.326C279.969 337.398 280.496 338.689 280.496 340.198C280.496 341.962 279.641 343.489 277.914 344.78C276.205 346.07 274.005 346.725 271.351 346.725C269.115 346.725 267.151 346.216 265.424 345.198C264.279 344.507 263.297 343.543 262.461 342.252L262.479 342.234Z" fill="#575656"/>
<path d="M290.514 317.999V324.853H295.186V328.78H290.514V339.652C290.514 340.67 290.769 341.379 291.259 341.761C291.768 342.143 292.459 342.343 293.386 342.343H295.186V346.215H292.223C289.914 346.215 288.223 345.706 287.169 344.688C286.114 343.67 285.587 342.143 285.587 340.125V328.798H281.896V324.871H285.587V318.017H290.514V317.999Z" fill="#575656"/>
<path d="M299.186 346.197V324.853H303.768V328.053C304.477 326.999 305.349 326.199 306.386 325.617C307.622 324.871 309.058 324.508 310.713 324.508H311.058V328.853H310.549C308.513 328.853 306.895 329.471 305.695 330.689C304.586 331.889 304.022 333.743 304.022 336.271V346.197H299.168H299.186Z" fill="#575656"/>
<path d="M321.221 345.397L312.767 324.854H317.821L323.657 339.434L329.457 324.854H334.474L322.512 354.506H317.53L321.221 345.379V345.397Z" fill="#575656"/>
<path d="M358.182 346.707C355.036 346.707 352.346 345.634 350.146 343.489C347.928 341.343 346.819 338.689 346.819 335.544C346.819 332.399 347.928 329.726 350.146 327.581C352.364 325.417 355.036 324.345 358.182 324.345C361.327 324.345 364.036 325.417 366.254 327.581C368.454 329.744 369.563 332.399 369.563 335.544C369.563 338.689 368.454 341.343 366.254 343.489C364.054 345.634 361.363 346.707 358.182 346.707ZM358.182 342.707C359.963 342.707 361.472 342.034 362.745 340.689C364.017 339.344 364.654 337.635 364.654 335.562C364.654 333.489 364.017 331.799 362.745 330.435C361.472 329.053 359.945 328.363 358.182 328.363C356.418 328.363 354.927 329.053 353.655 330.435C352.382 331.817 351.746 333.526 351.746 335.562C351.746 337.598 352.382 339.344 353.655 340.689C354.927 342.034 356.436 342.707 358.182 342.707Z" fill="#575656"/>
<path d="M374.762 320.599C374.762 318.581 375.326 317.054 376.453 316.036C377.58 315.018 379.307 314.509 381.616 314.509H383.979V318.381H382.561C381.652 318.381 380.943 318.581 380.434 318.963C379.925 319.345 379.689 320.054 379.689 321.072V324.872H383.979V328.799H379.689V346.234H374.762V328.799H371.071V324.872H374.762V320.617V320.599Z" fill="#575656"/>
<path d="M399.16 340.196L402.469 336.869C403.36 338.741 404.469 340.123 405.814 340.996C407.269 341.959 408.741 342.45 410.232 342.45C411.814 342.45 413.141 342.032 414.268 341.214C415.377 340.414 415.941 339.359 415.941 338.069C415.941 336.905 415.377 335.96 414.25 335.233C413.123 334.505 411.905 333.887 410.577 333.378C409.268 332.887 407.887 332.378 406.451 331.796C404.16 330.978 402.524 329.887 401.542 328.56C400.56 327.233 400.069 325.815 400.069 324.342C400.069 322.034 401.051 320.07 403.033 318.434C405.014 316.798 407.414 315.979 410.287 315.979C413.286 315.979 415.741 316.743 417.631 318.288C418.595 319.034 419.268 319.852 419.649 320.761L416.65 323.906C416.395 323.397 415.922 322.815 415.232 322.161C413.777 320.852 412.05 320.197 410.05 320.197C408.796 320.197 407.687 320.543 406.723 321.234C405.76 321.924 405.287 322.852 405.287 324.033C405.287 325.797 407.232 327.36 411.123 328.724C411.832 328.942 412.577 329.215 413.359 329.488C415.959 330.487 417.904 331.651 419.213 332.996C420.522 334.342 421.158 336.014 421.158 337.996C421.158 340.359 420.14 342.377 418.104 344.086C416.104 345.814 413.523 346.686 410.341 346.686C407.432 346.686 405.014 346.032 403.087 344.723C401.233 343.45 399.924 341.923 399.178 340.159L399.16 340.196Z" fill="#575656"/>
<path d="M423.994 335.543C423.994 332.471 425.158 329.835 427.485 327.635C429.812 325.435 432.775 324.326 436.339 324.326C439.138 324.326 441.775 325.217 444.229 327.017L442.647 330.817C440.502 329.162 438.393 328.344 436.339 328.344C434.139 328.344 432.357 329.035 430.975 330.435C429.594 331.835 428.921 333.525 428.921 335.543C428.921 337.561 429.612 339.252 430.975 340.634C432.339 342.016 434.139 342.707 436.339 342.707C438.429 342.707 440.556 341.888 442.738 340.27L444.32 344.07C441.938 345.834 439.284 346.706 436.339 346.706C432.757 346.706 429.812 345.615 427.485 343.434C425.158 341.252 423.994 338.616 423.994 335.543Z" fill="#575656"/>
<path d="M454.264 318.2C454.264 319 453.955 319.69 453.337 320.309C452.719 320.927 451.991 321.218 451.119 321.218C450.246 321.218 449.519 320.909 448.901 320.309C448.283 319.69 447.974 319 447.974 318.2C447.974 317.345 448.283 316.618 448.901 316C449.519 315.382 450.246 315.091 451.119 315.091C451.991 315.091 452.719 315.4 453.337 316C453.955 316.6 454.264 317.345 454.264 318.2ZM448.737 346.197V324.854H453.628V346.197H448.737Z" fill="#575656"/>
<path d="M463.101 337.671C463.392 338.98 464.01 340.034 464.937 340.87C466.319 342.125 468.119 342.743 470.391 342.743C472.773 342.743 474.973 341.87 477.045 340.143L478.5 343.725C476.191 345.706 473.446 346.706 470.264 346.706C466.628 346.706 463.683 345.688 461.41 343.634C459.138 341.598 457.992 338.907 457.992 335.58C457.992 332.253 458.992 329.617 461.01 327.508C463.028 325.399 465.664 324.326 468.919 324.326C472.173 324.326 474.755 325.381 476.791 327.471C478.827 329.58 479.863 332.18 479.863 335.271C479.863 336.125 479.79 336.925 479.645 337.652H463.083L463.101 337.671ZM463.01 333.835H474.936C474.882 332.435 474.3 331.18 473.173 330.017C472.064 328.871 470.646 328.289 468.919 328.289C467.191 328.289 465.683 328.908 464.537 330.162C463.701 331.107 463.192 332.326 462.992 333.835H463.01Z" fill="#575656"/>
<path d="M488.789 335.453V346.197H483.935V324.853H488.607V327.708C489.171 326.708 490.007 325.908 491.098 325.272C492.189 324.653 493.352 324.326 494.607 324.326C497.152 324.326 499.188 325.181 500.716 326.908C502.243 328.635 503.006 330.926 503.006 333.798V346.197H498.116V335.034C498.116 332.762 497.752 331.071 497.007 329.98C496.261 328.889 495.116 328.344 493.571 328.344C492.771 328.344 491.989 328.599 491.225 329.126C490.462 329.653 489.88 330.362 489.48 331.271C488.989 332.326 488.753 333.707 488.753 335.453H488.789Z" fill="#575656"/>
<path d="M507.097 335.543C507.097 332.471 508.26 329.835 510.587 327.635C512.914 325.435 515.878 324.326 519.441 324.326C522.241 324.326 524.877 325.217 527.331 327.017L525.75 330.817C523.604 329.162 521.496 328.344 519.441 328.344C517.241 328.344 515.46 329.035 514.078 330.435C512.696 331.835 512.024 333.525 512.024 335.543C512.024 337.561 512.714 339.252 514.078 340.634C515.441 342.016 517.241 342.707 519.441 342.707C521.532 342.707 523.659 341.888 525.841 340.27L527.422 344.07C525.041 345.834 522.386 346.706 519.441 346.706C515.86 346.706 512.914 345.615 510.587 343.434C508.26 341.252 507.097 338.616 507.097 335.543Z" fill="#575656"/>
<path d="M535.313 337.671C535.604 338.98 536.222 340.034 537.149 340.87C538.531 342.125 540.331 342.743 542.603 342.743C544.985 342.743 547.185 341.87 549.257 340.143L550.712 343.725C548.403 345.706 545.657 346.706 542.476 346.706C538.84 346.706 535.895 345.688 533.622 343.634C531.349 341.598 530.204 338.907 530.204 335.58C530.204 332.253 531.204 329.617 533.222 327.508C535.24 325.399 537.876 324.326 541.131 324.326C544.385 324.326 546.966 325.381 549.003 327.471C551.039 329.58 552.075 332.18 552.075 335.271C552.075 336.125 552.002 336.925 551.857 337.652H535.295L535.313 337.671ZM535.222 333.835H547.148C547.094 332.435 546.512 331.18 545.385 330.017C544.276 328.871 542.858 328.289 541.131 328.289C539.403 328.289 537.894 328.908 536.749 330.162C535.913 331.107 535.404 332.326 535.204 333.835H535.222Z" fill="#575656"/>
<path d="M577.382 332.435H582.437C582.437 331.035 581.891 329.999 580.8 329.308C579.71 328.617 578.146 328.272 576.073 328.272H575.946C574.001 328.272 571.946 328.726 569.765 329.635L568.529 325.836C570.783 324.872 573.274 324.381 576.001 324.345H576.092C579.691 324.345 582.455 325.036 584.4 326.417C586.327 327.799 587.291 329.981 587.291 332.999V346.216H582.655V343.87C581.746 344.78 580.619 345.489 579.291 345.979C577.964 346.47 576.619 346.725 575.237 346.725C572.656 346.725 570.583 346.052 569.001 344.707C567.42 343.361 566.62 341.707 566.62 339.744C566.62 337.562 567.601 335.744 569.583 334.326C571.419 333.071 574.019 332.453 577.382 332.453V332.435ZM576.037 342.871C577.292 342.871 578.546 342.561 579.764 341.962C581 341.343 581.873 340.653 582.418 339.853V336.235H578.091C575.637 336.235 573.91 336.544 572.946 337.18C572.001 337.889 571.528 338.744 571.528 339.744C571.528 340.653 571.928 341.398 572.728 341.998C573.528 342.598 574.637 342.889 576.037 342.889V342.871Z" fill="#575656"/>
<path d="M597.69 335.453V346.197H592.836V324.853H597.508V327.708C598.072 326.708 598.908 325.908 599.999 325.272C601.09 324.653 602.253 324.326 603.508 324.326C606.053 324.326 608.089 325.181 609.616 326.908C611.144 328.635 611.907 330.926 611.907 333.798V346.197H607.017V335.034C607.017 332.762 606.653 331.071 605.908 329.98C605.162 328.889 604.017 328.344 602.472 328.344C601.672 328.344 600.89 328.599 600.126 329.126C599.363 329.653 598.781 330.362 598.381 331.271C597.89 332.326 597.654 333.707 597.654 335.453H597.69Z" fill="#575656"/>
<path d="M626.56 324.343C629.105 324.343 631.287 325.361 633.123 327.416V314.544H638.014V346.196H633.287V343.505C631.487 345.632 629.233 346.705 626.56 346.705C623.415 346.705 620.87 345.596 618.924 343.378C616.979 341.16 616.016 338.542 616.016 335.542C616.016 332.543 616.979 329.906 618.924 327.688C620.87 325.452 623.415 324.343 626.56 324.343ZM633.087 336.906C633.178 335.96 633.178 335.051 633.087 334.179C632.923 332.561 632.323 331.215 631.287 330.125C630.142 328.925 628.724 328.343 627.033 328.343C625.142 328.343 623.651 329.034 622.579 330.415C621.488 331.797 620.942 333.506 620.942 335.542C620.942 337.579 621.488 339.324 622.579 340.669C623.67 342.015 625.16 342.687 627.033 342.687C628.724 342.687 630.142 342.087 631.287 340.906C632.323 339.833 632.923 338.488 633.087 336.906Z" fill="#575656"/>
<path d="M656.449 346.197V316.49H661.467V346.197H656.449Z" fill="#575656"/>
<path d="M682.047 342.541C685.155 342.541 688.01 341.541 690.591 339.559L692.646 343.177C689.991 345.541 686.446 346.723 682.047 346.723C677.647 346.723 674.084 345.25 671.084 342.305C668.102 339.359 666.593 335.723 666.593 331.378C666.593 327.033 668.084 323.343 671.084 320.397C674.065 317.452 677.72 315.979 682.047 315.979C686.374 315.979 689.864 317.179 692.464 319.561L690.446 323.179C687.901 321.161 685.101 320.161 682.028 320.161C679.174 320.161 676.72 321.215 674.684 323.306C672.629 325.488 671.593 328.179 671.593 331.36C671.593 334.542 672.629 337.214 674.684 339.378C676.72 341.487 679.156 342.523 682.028 342.523L682.047 342.541Z" fill="#575656"/>
<path d="M709.154 320.672V346.197H704.136V320.672H694.991V316.49H718.28V320.672H709.136H709.154Z" fill="#575656"/>
</svg>
