<svg width="900" height="450" viewBox="0 0 900 450" fill="none" xmlns="http://www.w3.org/2000/svg">
<path d="M173.396 243.659C173.396 250.515 174.901 255.78 176.868 258.964C179.447 263.136 183.294 264.903 187.216 264.903C192.274 264.903 196.901 263.648 205.819 251.315C212.963 241.429 221.381 227.553 227.045 218.855L236.636 204.117C243.3 193.882 251.012 182.504 259.854 174.792C267.073 168.497 274.86 165 282.698 165C295.855 165 308.388 172.625 317.98 186.925C328.478 202.587 333.573 222.314 333.573 242.672C333.573 254.774 331.188 263.667 327.129 270.692C323.207 277.486 315.564 284.274 302.706 284.274V264.903C313.715 264.903 316.463 254.787 316.463 243.209C316.463 226.71 312.616 208.401 304.142 195.318C298.128 186.038 290.335 180.368 281.761 180.368C272.487 180.368 265.025 187.362 256.638 199.833C252.18 206.459 247.602 214.533 242.463 223.644L236.805 233.667C225.44 253.819 222.561 258.409 216.878 265.983C206.918 279.247 198.412 284.274 187.216 284.274C173.933 284.274 165.534 278.523 160.332 269.855C156.086 262.792 154 253.525 154 242.965L173.396 243.659Z" fill="#0081FB" style="mix-blend-mode:luminosity"/>
<path d="M169.293 188.293C178.186 174.586 191.019 165 205.738 165C214.262 165 222.736 167.523 231.585 174.748C241.264 182.648 251.58 195.655 264.451 217.094L269.065 224.787C280.206 243.346 286.544 252.895 290.254 257.397C295.025 263.18 298.366 264.903 302.706 264.903C313.715 264.903 316.463 254.787 316.463 243.209L333.573 242.672C333.573 254.774 331.188 263.667 327.129 270.692C323.207 277.486 315.564 284.274 302.706 284.274C294.713 284.274 287.631 282.538 279.8 275.151C273.78 269.481 266.742 259.408 261.328 250.353L245.223 223.451C237.142 209.95 229.73 199.883 225.44 195.324C220.825 190.422 214.892 184.502 205.425 184.502C197.763 184.502 191.256 189.879 185.811 198.103L169.293 188.293Z" fill="url(#paint0_linear_2055_181)" style="mix-blend-mode:luminosity"/>
<path d="M205.425 184.502C197.763 184.502 191.256 189.879 185.811 198.103C178.111 209.725 173.396 227.035 173.396 243.659C173.396 250.515 174.901 255.78 176.868 258.964L160.332 269.855C156.086 262.792 154 253.525 154 242.965C154 223.763 159.271 203.749 169.293 188.293C178.186 174.586 191.019 165 205.738 165L205.425 184.502Z" fill="url(#paint1_linear_2055_181)" style="mix-blend-mode:luminosity"/>
<path d="M371.279 168.771H393.716L431.865 237.788L470.02 168.771H491.971V282.176H473.667V195.262L440.208 255.448H423.035L389.582 195.262V282.176H371.279V168.771ZM549.322 211.055C536.196 211.055 528.29 220.934 526.398 233.167H570.948C570.03 220.565 562.761 211.055 549.322 211.055ZM508.251 240.136C508.251 214.395 524.887 195.661 549.641 195.661C573.989 195.661 588.527 214.158 588.527 241.51V246.537H526.398C528.602 259.845 537.432 268.812 551.67 268.812C563.029 268.812 570.13 265.346 576.861 259.008L586.584 270.916C577.423 279.341 565.771 284.199 551.021 284.199C524.225 284.199 508.251 264.659 508.251 240.136ZM610.72 212.678H593.872V197.691H610.72V172.905H628.38V197.691H653.978V212.678H628.38V250.665C628.38 263.635 632.527 268.244 642.718 268.244C647.371 268.244 650.037 267.844 653.978 267.188V282.013C649.069 283.4 644.386 284.037 639.315 284.037C620.25 284.037 610.72 273.62 610.72 252.769V212.678ZM728.34 227.253C724.793 218.298 716.881 211.704 705.253 211.704C690.141 211.704 680.468 222.426 680.468 239.893C680.468 256.922 689.373 268.163 704.529 268.163C716.444 268.163 724.949 261.231 728.34 252.607V227.253ZM746 282.176H728.665V270.348C723.819 277.311 715.001 284.199 700.719 284.199C677.751 284.199 662.402 264.971 662.402 239.893C662.402 214.577 678.12 195.661 701.694 195.661C713.346 195.661 722.488 200.32 728.665 208.544V197.691H746V282.176Z" fill="#2D2D2D"/>
<defs>
<linearGradient id="paint0_linear_2055_181" x1="192.093" y1="238.063" x2="315.739" y2="244.308" gradientUnits="userSpaceOnUse">
<stop stop-color="#0064E1"/>
<stop offset="0.4" stop-color="#0064E1"/>
<stop offset="0.83" stop-color="#0073EE"/>
<stop offset="1" stop-color="#0082FB"/>
</linearGradient>
<linearGradient id="paint1_linear_2055_181" x1="182.101" y1="251.802" x2="182.101" y2="206.215" gradientUnits="userSpaceOnUse">
<stop stop-color="#0082FB"/>
<stop offset="1" stop-color="#0064E0"/>
</linearGradient>
</defs>
</svg>
