<svg width="900" height="450" viewBox="0 0 900 450" fill="none" xmlns="http://www.w3.org/2000/svg">
<path fill-rule="evenodd" clip-rule="evenodd" d="M301.871 353.209C301.824 348.517 301.42 343.093 301.009 338.946C300.964 338.508 301.09 338.07 301.359 337.722C301.628 337.375 302.021 337.144 302.456 337.077L302.523 337.067C302.946 337.002 303.378 337.096 303.736 337.33C304.094 337.565 304.352 337.924 304.461 338.337C304.965 340.426 305.803 342.42 306.941 344.243C307.97 345.86 311.573 351.445 319.139 351.445C324.653 351.445 328.697 347.548 328.697 342.622C328.697 338.07 325.021 336.232 317.819 333.512C315.69 332.629 313.484 331.824 311.352 330.868C308.411 329.468 301.5 326.236 301.5 317.266C301.5 307.277 309.514 301.395 319.731 301.395C322.21 301.395 325.74 301.742 329.275 303.367C330.058 303.724 330.98 303.447 331.441 302.725L332.026 301.803C332.177 301.563 332.385 301.365 332.631 301.225C332.877 301.085 333.153 301.008 333.436 301.001C333.881 300.99 334.313 301.15 334.642 301.449C334.972 301.747 335.174 302.161 335.208 302.605C335.532 306.789 335.998 310.961 336.604 315.114C336.698 315.343 336.742 315.589 336.732 315.836C336.723 316.084 336.661 316.326 336.55 316.547C336.439 316.768 336.281 316.963 336.089 317.118C335.896 317.273 335.672 317.386 335.433 317.447C335.193 317.508 334.943 317.518 334.699 317.475C334.456 317.431 334.224 317.336 334.021 317.196C333.817 317.056 333.646 316.873 333.518 316.661C333.391 316.449 333.311 316.212 333.283 315.966C332.36 313.53 331.839 312.39 330.826 310.873C328.403 307.568 325.168 305.292 321.128 305.292C315.907 305.292 312.823 309.549 312.823 313.005C312.823 316.972 316.349 318.663 317.893 319.398C321.054 320.942 324.359 321.972 327.668 323.295C332.958 325.354 340.234 328.515 340.234 338.217C340.234 347.769 332.591 355.779 320.466 355.779C314.44 355.779 310.513 353.874 308.234 352.427C308.041 352.306 307.825 352.224 307.6 352.187C307.375 352.149 307.144 352.157 306.922 352.21C306.7 352.263 306.49 352.36 306.306 352.495C306.121 352.63 305.966 352.8 305.848 352.995L305.196 354.072C305.053 354.305 304.857 354.501 304.623 354.644C304.39 354.787 304.126 354.873 303.853 354.894L303.729 354.904C303.494 354.923 303.257 354.894 303.034 354.817C302.811 354.741 302.606 354.62 302.431 354.461C302.257 354.302 302.117 354.109 302.021 353.893C301.924 353.678 301.873 353.445 301.871 353.209ZM341.848 352.788C341.848 352.056 342.373 351.435 343.088 351.314C344.198 351.131 345.541 350.653 345.745 349.242C345.965 347.548 345.965 343.14 345.965 342.037C345.965 339.464 345.892 335.276 345.892 332.703C345.892 329.013 344.655 328.001 342.918 327.509C342.608 327.419 342.336 327.23 342.143 326.971C341.95 326.713 341.847 326.398 341.848 326.076V325.902C341.848 325.17 342.376 324.555 343.095 324.431C346.754 323.79 352.289 322.226 355.193 321.223C355.38 321.158 355.578 321.131 355.776 321.144C355.973 321.156 356.166 321.208 356.344 321.296C356.521 321.384 356.679 321.507 356.808 321.657C356.938 321.806 357.036 321.981 357.098 322.169C357.158 322.363 357.215 322.546 357.265 322.737C357.328 322.957 357.441 323.16 357.595 323.33C357.749 323.499 357.94 323.631 358.153 323.715C358.367 323.799 358.596 323.833 358.825 323.814C359.053 323.795 359.274 323.724 359.471 323.606C362.244 321.995 364.875 320.799 368.748 320.799C371.542 320.799 374.336 321.534 376.615 323.148C380.194 325.634 380.792 329.431 381.093 333.451V339.905C381.093 341.008 380.95 346.739 380.95 347.992C380.95 349.851 381.454 350.984 383.884 351.435C384.22 351.504 384.522 351.688 384.738 351.956C384.953 352.224 385.068 352.558 385.064 352.902C385.064 353.106 385.022 353.308 384.942 353.496C384.861 353.683 384.742 353.852 384.593 353.992C384.444 354.131 384.269 354.239 384.076 354.308C383.884 354.377 383.68 354.406 383.476 354.392C381.394 354.252 378.249 354.162 373.082 354.162C370.168 354.162 368.561 354.242 367.067 354.372C366.86 354.391 366.652 354.366 366.456 354.3C366.259 354.234 366.079 354.127 365.925 353.987C365.772 353.847 365.65 353.677 365.566 353.487C365.483 353.298 365.439 353.093 365.439 352.885V352.571C365.439 351.899 365.89 351.304 366.542 351.134C368.691 350.552 368.958 349.526 368.895 345.051L368.748 333.585C368.674 330.059 368.527 326.015 363.748 326.015C361.76 326.015 360.219 326.744 358.735 327.864C358.54 328.007 358.382 328.196 358.275 328.413C358.168 328.631 358.115 328.871 358.12 329.113C358.237 332.796 358.237 343.25 358.237 346.519C358.237 349.891 358.822 350.823 360.617 351.298C361.258 351.465 361.693 352.066 361.693 352.731V352.925C361.693 353.13 361.652 353.332 361.571 353.519C361.49 353.707 361.372 353.876 361.223 354.016C361.074 354.156 360.898 354.264 360.706 354.333C360.514 354.403 360.309 354.432 360.105 354.419C357.609 354.262 354.401 354.162 348.388 354.162C346.076 354.162 344.732 354.235 343.479 354.356C343.272 354.375 343.063 354.351 342.865 354.285C342.668 354.219 342.487 354.112 342.333 353.972C342.179 353.832 342.057 353.661 341.973 353.47C341.89 353.279 341.847 353.073 341.848 352.865V352.788ZM405.868 340.55C405.866 340.322 405.813 340.098 405.712 339.894C405.611 339.69 405.464 339.512 405.284 339.373C405.103 339.235 404.893 339.139 404.67 339.094C404.447 339.049 404.216 339.055 403.996 339.113C401.516 339.741 398.224 341.188 398.224 345.051C398.224 347.037 399.254 349.239 402.048 349.239C403.471 349.239 404.32 348.808 405.213 348.22C405.415 348.083 405.581 347.899 405.695 347.683C405.809 347.468 405.869 347.227 405.868 346.983V340.55ZM422.852 349.052C423.014 349.182 423.147 349.345 423.243 349.529C423.339 349.714 423.395 349.917 423.408 350.124C423.421 350.332 423.39 350.54 423.318 350.735C423.246 350.93 423.134 351.108 422.989 351.258C419.456 354.834 415.954 355.562 414.025 355.562C412.042 355.538 410.115 354.896 408.514 353.724C408.004 353.314 407.546 352.842 407.151 352.32C406.926 352.022 406.595 351.82 406.226 351.757C405.857 351.693 405.478 351.773 405.166 351.979C403.144 353.293 398.97 355.632 394.331 355.632C387.567 355.632 385.953 351.077 385.953 348.36C385.953 339.962 398.876 336.449 404.728 335.4C405.069 335.337 405.377 335.157 405.6 334.891C405.822 334.625 405.944 334.289 405.944 333.943C405.951 331.67 405.954 328.996 405.647 328.074C404.765 325.501 401.827 325.501 401.459 325.501C399.033 325.501 397.71 326.971 397.269 328.589C397.048 329.545 397.048 330.574 396.827 331.53C396.239 334.026 394.181 334.982 392.346 334.982C390.067 334.982 387.934 333.512 387.934 330.794C387.934 325.354 398.004 320.942 407.117 320.942C413.437 320.942 418.066 323.001 418.066 329.103L417.922 345.493C417.849 346.743 417.772 349.603 419.683 349.603C420.158 349.603 420.606 349.356 421.027 349.028C421.29 348.828 421.613 348.721 421.943 348.726C422.274 348.73 422.594 348.845 422.852 349.052Z" fill="#221F20"/>
<path fill-rule="evenodd" clip-rule="evenodd" d="M443.535 350.562C448.973 350.562 450.954 342.992 450.954 337.996C450.954 332.702 448.749 325.647 443.315 325.647C438.389 325.647 438.389 330.72 438.389 332.261C438.389 333.952 438.465 342.184 438.465 344.022C438.465 346.374 438.465 350.562 443.535 350.562ZM426.264 333.143C426.397 327.529 425.595 326.205 423.089 325.514C422.793 325.426 422.534 325.244 422.35 324.995C422.167 324.747 422.07 324.445 422.073 324.137V323.769C422.071 323.424 422.197 323.09 422.427 322.831C422.656 322.573 422.973 322.408 423.316 322.369C428.279 321.837 433.529 320.484 436.113 319.782C436.297 319.731 436.49 319.719 436.68 319.745C436.869 319.772 437.051 319.838 437.214 319.938C437.377 320.039 437.518 320.172 437.627 320.329C437.737 320.486 437.813 320.664 437.85 320.852C437.927 321.192 438.004 321.61 438.098 322.135C438.136 322.362 438.23 322.576 438.371 322.759C438.511 322.941 438.695 323.086 438.905 323.181C439.114 323.276 439.344 323.318 439.574 323.304C439.804 323.289 440.027 323.218 440.223 323.097C443.107 321.249 445.951 320.283 449.561 320.283C458.454 320.283 463.965 327.927 463.965 336.011C463.965 347.106 456.101 354.826 446.917 354.826C444.1 354.826 442.048 354.108 440.628 353.342C440.413 353.225 440.172 353.165 439.928 353.169C439.683 353.172 439.444 353.24 439.234 353.364C439.023 353.488 438.848 353.664 438.726 353.876C438.605 354.088 438.54 354.328 438.539 354.572V363.054C438.539 365.898 438.713 368.091 441.754 368.605C442.073 368.669 442.36 368.842 442.564 369.095C442.769 369.347 442.878 369.664 442.873 369.989C442.874 370.177 442.836 370.363 442.763 370.537C442.69 370.71 442.583 370.867 442.449 370.998C442.314 371.13 442.155 371.233 441.98 371.302C441.805 371.371 441.618 371.404 441.43 371.399C437.797 371.299 434.163 371.237 430.528 371.216C427.764 371.216 425.976 371.266 423.624 371.366C423.433 371.375 423.243 371.345 423.065 371.279C422.886 371.213 422.723 371.111 422.585 370.98C422.447 370.848 422.337 370.691 422.262 370.516C422.186 370.341 422.147 370.153 422.146 369.962V369.778C422.146 369.097 422.621 368.485 423.296 368.371C426.03 367.904 426.264 366.4 426.264 364.304C426.337 362.907 426.337 358.573 426.337 356.955L426.264 333.143ZM502.428 354.385C499.444 354.165 497.492 354.165 489.675 354.165C485.397 354.165 483.689 354.215 481.186 354.392C480.76 354.412 480.342 354.269 480.017 353.992C479.692 353.715 479.485 353.325 479.439 352.9C479.392 352.476 479.508 352.05 479.765 351.708C480.021 351.367 480.398 351.136 480.819 351.063C484.939 350.485 485.116 348.998 485.116 339.684V316.313C485.043 310.729 484.973 309.038 484.455 308.008C483.9 306.705 483.028 306.397 480.782 306.023C480.392 305.958 480.037 305.757 479.781 305.455C479.526 305.154 479.385 304.771 479.385 304.375C479.385 303.346 480.16 302.594 481.103 302.621C485.233 302.731 489.367 302.788 493.495 302.788C497.639 302.788 500.296 302.698 502.575 302.621C503.017 302.585 503.455 302.725 503.793 303.012C504.131 303.299 504.342 303.708 504.378 304.15C504.414 304.592 504.274 305.03 503.987 305.368C503.7 305.706 503.291 305.917 502.849 305.953C498.494 306.498 498.494 307.818 498.494 317.563L498.568 340.345C498.715 348.065 498.789 348.507 499.671 349.68C500.299 350.422 501.285 350.813 502.796 351.016C503.193 351.074 503.556 351.273 503.819 351.577C504.082 351.881 504.226 352.269 504.226 352.671C504.231 352.904 504.187 353.136 504.097 353.352C504.007 353.568 503.873 353.762 503.704 353.924C503.535 354.085 503.334 354.209 503.115 354.289C502.895 354.368 502.661 354.401 502.428 354.385ZM504.761 352.788C504.761 352.056 505.285 351.434 506.001 351.314C507.11 351.13 508.454 350.652 508.658 349.242C508.878 347.547 508.878 343.139 508.878 342.036C508.878 339.463 508.805 335.276 508.805 332.702C508.805 329.013 507.568 328 505.83 327.509C505.521 327.418 505.249 327.229 505.056 326.971C504.863 326.712 504.759 326.398 504.761 326.075V325.901C504.761 325.169 505.285 324.554 506.007 324.431C509.667 323.789 515.198 322.225 518.105 321.222C518.292 321.158 518.491 321.131 518.688 321.143C518.886 321.156 519.079 321.208 519.256 321.296C519.434 321.384 519.592 321.506 519.721 321.656C519.851 321.806 519.949 321.98 520.01 322.168C520.07 322.362 520.127 322.546 520.177 322.736C520.241 322.956 520.354 323.159 520.507 323.328C520.661 323.497 520.852 323.629 521.065 323.713C521.278 323.797 521.507 323.831 521.735 323.812C521.963 323.793 522.183 323.723 522.38 323.605C525.154 321.994 527.784 320.798 531.661 320.798C534.451 320.798 537.245 321.533 539.524 323.147C543.107 325.634 543.708 329.43 544.003 333.451C544.009 333.491 544.009 333.531 544.009 333.571V339.904C544.009 341.007 543.862 346.739 543.862 347.992C543.862 349.85 544.363 350.983 546.796 351.434C547.133 351.503 547.435 351.688 547.65 351.955C547.866 352.223 547.981 352.558 547.976 352.901C547.977 353.106 547.935 353.308 547.854 353.496C547.773 353.684 547.654 353.853 547.505 353.992C547.356 354.132 547.179 354.24 546.987 354.309C546.794 354.377 546.589 354.406 546.385 354.392C544.307 354.252 541.159 354.161 535.995 354.161C533.078 354.161 531.473 354.241 529.98 354.372C529.773 354.39 529.565 354.366 529.368 354.299C529.172 354.233 528.991 354.127 528.838 353.987C528.685 353.847 528.563 353.677 528.479 353.487C528.395 353.297 528.352 353.092 528.352 352.885V352.57C528.352 351.899 528.803 351.304 529.455 351.133C531.604 350.552 531.871 349.526 531.808 345.051L531.661 333.585C531.584 330.059 531.44 326.015 526.661 326.015C524.672 326.015 523.128 326.743 521.645 327.863C521.45 328.007 521.292 328.196 521.186 328.413C521.079 328.631 521.027 328.871 521.033 329.113C521.15 332.796 521.15 343.25 521.15 346.518C521.15 349.89 521.731 350.823 523.529 351.297C524.171 351.464 524.606 352.066 524.606 352.731V352.925C524.606 353.129 524.564 353.331 524.484 353.519C524.403 353.707 524.284 353.876 524.135 354.016C523.987 354.156 523.811 354.264 523.619 354.333C523.426 354.402 523.222 354.431 523.018 354.419C520.522 354.262 517.313 354.161 511.301 354.161C508.988 354.161 507.645 354.235 506.392 354.355C506.184 354.375 505.975 354.351 505.778 354.285C505.581 354.219 505.399 354.112 505.246 353.971C505.092 353.831 504.97 353.66 504.886 353.469C504.802 353.279 504.76 353.073 504.761 352.865V352.788ZM581.216 346.391C582.138 347.06 582.265 348.41 581.456 349.212C577.404 353.236 571.938 355.515 566.227 355.562C555.716 355.562 548 348.283 548 338.287C548 327.779 556.966 321.019 567.918 321.019C575.12 321.019 581.954 324.177 581.954 329.471C581.954 331.967 579.826 334.099 577.326 334.099C576.223 334.099 574.899 333.585 574.091 332.776C573.429 332.188 573.282 331.82 571.885 328.662C571.223 327.265 569.753 324.765 567.477 324.765C563.212 324.765 562.036 332.041 562.036 335.643C562.036 343.948 566.742 349.533 571.885 349.533C574.619 349.533 576.881 348.276 578.89 346.511C579.206 346.23 579.609 346.065 580.032 346.043C580.454 346.022 580.872 346.144 581.216 346.391ZM591.365 342.331C594.968 342.331 598.05 345.198 598.05 349.018C598.05 352.768 594.968 355.635 591.439 355.635C589.704 355.653 588.033 354.982 586.792 353.769C585.552 352.556 584.843 350.9 584.822 349.165C584.822 344.61 588.351 342.331 591.365 342.331Z" fill="#221F20"/>
<path d="M553.507 228.693C552.064 224.738 549.285 222.601 546.133 220.891C545.545 220.57 545.011 220.25 544.53 220.036C543.568 219.555 542.606 219.074 541.644 218.593C531.812 213.356 524.117 206.837 518.826 199.035C517.33 196.844 515.994 194.493 514.925 192.088C514.445 190.806 514.498 190.058 514.819 189.363C515.139 188.829 515.567 188.401 516.101 188.027C517.811 186.905 519.521 185.783 520.697 185.035C522.781 183.645 524.491 182.576 525.559 181.828C529.567 178.996 532.399 176.004 534.163 172.637C536.674 167.935 536.995 162.431 535.071 157.461C532.399 150.407 525.773 146.079 517.704 146.079C515.994 146.079 514.338 146.239 512.628 146.613C512.2 146.72 511.719 146.827 511.292 146.934C511.345 142.125 511.238 137.048 510.811 132.025C509.315 114.444 503.116 105.253 496.703 97.932C492.589 93.3364 487.779 89.4355 482.382 86.3896C472.657 80.8322 461.595 78 449.572 78C437.549 78 426.54 80.8322 416.815 86.3896C411.418 89.4355 406.608 93.3364 402.494 97.932C396.081 105.253 389.936 114.498 388.386 132.025C387.959 137.048 387.852 142.125 387.905 146.934C387.478 146.827 387.05 146.72 386.57 146.613C384.913 146.239 383.203 146.079 381.546 146.079C373.477 146.079 366.851 150.461 364.179 157.461C362.256 162.431 362.576 167.935 365.088 172.637C366.851 176.004 369.683 178.996 373.691 181.828C374.76 182.576 376.416 183.645 378.554 185.035C379.676 185.783 381.333 186.851 382.989 187.92C383.577 188.294 384.058 188.775 384.432 189.363C384.753 190.058 384.806 190.806 384.272 192.195C383.203 194.546 381.921 196.844 380.424 198.982C375.241 206.57 367.76 213.036 358.248 218.219C353.225 220.891 347.988 222.654 345.744 228.693C344.087 233.235 345.156 238.365 349.377 242.747C350.927 244.35 352.744 245.739 354.721 246.808C358.836 249.052 363.218 250.816 367.813 252.045C368.775 252.312 369.63 252.686 370.432 253.22C371.981 254.556 371.767 256.587 373.798 259.579C374.813 261.129 376.149 262.465 377.646 263.534C381.974 266.526 386.837 266.686 391.967 266.9C396.616 267.06 401.853 267.274 407.891 269.251C410.402 270.053 412.967 271.656 415.96 273.526C423.174 277.962 433.006 284 449.518 284C466.03 284 475.916 277.908 483.184 273.473C486.176 271.656 488.741 270.053 491.146 269.251C497.131 267.274 502.421 267.06 507.07 266.9C512.2 266.686 517.063 266.526 521.391 263.534C523.208 262.251 524.704 260.648 525.773 258.724C527.269 256.213 527.216 254.449 528.605 253.22C529.353 252.686 530.208 252.312 531.063 252.098C535.659 250.869 540.148 249.106 544.316 246.808C546.4 245.686 548.324 244.189 549.927 242.426L549.98 242.373C554.148 238.098 555.164 233.074 553.507 228.693ZM538.865 236.548C529.941 241.464 523.956 240.93 519.361 243.922C515.406 246.434 517.758 251.884 514.925 253.861C511.399 256.266 501.032 253.701 487.673 258.136C476.611 261.77 469.611 272.297 449.732 272.297C429.854 272.297 423.014 261.824 411.792 258.136C398.433 253.701 388.066 256.32 384.539 253.861C381.707 251.884 384.005 246.434 380.104 243.922C375.455 240.93 369.523 241.464 360.599 236.548C354.881 233.395 358.141 231.471 360.011 230.563C392.394 214.906 397.578 190.699 397.791 188.882C398.059 186.691 398.379 184.981 395.974 182.79C393.677 180.653 383.417 174.294 380.531 172.316C375.829 169.003 373.745 165.744 375.294 161.682C376.363 158.904 378.981 157.835 381.707 157.835C382.562 157.835 383.417 157.942 384.272 158.102C389.455 159.224 394.478 161.789 397.364 162.537C397.738 162.644 398.059 162.698 398.433 162.698C399.982 162.698 400.517 161.896 400.41 160.133C400.089 154.468 399.288 143.46 400.196 133.147C401.425 118.986 405.967 111.933 411.418 105.734C414.036 102.741 426.273 89.8096 449.732 89.8096C473.191 89.8096 485.428 102.688 488.047 105.68C493.497 111.879 498.039 118.933 499.268 133.094C500.177 143.407 499.375 154.415 499.001 160.079C498.894 161.95 499.429 162.644 500.978 162.644C501.352 162.644 501.673 162.591 502.047 162.484C504.933 161.789 509.956 159.171 515.139 158.049C515.994 157.835 516.849 157.782 517.704 157.782C520.429 157.782 523.048 158.85 524.117 161.629C525.666 165.69 523.582 168.95 518.88 172.263C516.048 174.24 505.788 180.599 503.436 182.737C501.032 184.928 501.352 186.638 501.62 188.829C501.833 190.645 507.017 214.852 539.4 230.509C541.323 231.418 544.53 233.395 538.865 236.548Z" fill="black"/>
</svg>
