<svg width="900" height="450" viewBox="0 0 900 450" fill="none" xmlns="http://www.w3.org/2000/svg">
<path d="M491.289 283.373V296.663H442.88V150.492H456.17V283.373H491.289Z" fill="#2D2D2D"/>
<path d="M590 225C590 302.319 527.319 365 450 365C372.681 365 310 302.319 310 225C310 147.681 372.681 85 450 85C452.068 85 454.131 85.0499 456.171 85.1331V99.3881C454.131 99.2828 452.068 99.2384 450 99.2384C380.543 99.2384 324.238 155.543 324.238 225C324.238 294.457 380.543 350.762 450 350.762C517.067 350.762 571.869 298.266 575.562 232.119H493.187V218.829H589.867C589.95 220.869 590 222.932 590 225Z" fill="#2D2D2D"/>
<path d="M397.322 194.15C409.377 194.15 419.15 184.377 419.15 172.321C419.15 160.265 409.377 150.492 397.322 150.492C385.266 150.492 375.493 160.265 375.493 172.321C375.493 184.377 385.266 194.15 397.322 194.15Z" fill="#2D2D2D"/>
</svg>
