<svg width="900" height="450" viewBox="0 0 900 450" fill="none" xmlns="http://www.w3.org/2000/svg">
<path d="M230.319 231.673L248.553 187.003H269.064V262.972H255.39V206.174L237.917 246.259H222.723L205.25 206.174V262.972H191.576V187.003H212.087L230.319 231.673ZM331.622 187.003C347.822 187.003 360.491 194.341 360.491 212.072C360.491 229.545 347.726 237.142 331.622 237.143H320.228V262.972H305.792V187.003H331.622ZM440.246 200.298H405.299V217.771H437.207V230.685H405.299V249.677H440.246V262.972H390.866V187.003H440.246V200.298ZM504.266 187.003C520.217 187.003 532.373 192.822 532.373 210.554C532.373 221.515 527.051 228.29 519.113 231.815L535.43 262.972H519.438L504.728 234.827C504.071 234.85 503.411 234.863 502.745 234.863H490.589V262.972H476.156V187.003H504.266ZM615.746 200.298H597.893V249.677H615.746V262.972H565.606V249.677H583.46V200.298H565.606V187.003H615.746V200.298ZM713.642 262.972H698.446L693.269 246.259H664.886L659.708 262.972H644.513L669.584 187.003H688.57L713.642 262.972ZM760.667 249.677H795.736V262.972H746.23V187.003H760.667V249.677ZM154.14 187V200.295H136.287V249.675H154.14V262.969H104V249.675H121.853V200.295H104V187H154.14ZM668.689 233.987H689.465L679.079 200.48L668.689 233.987ZM320.228 224.871H330.862C339.181 224.871 345.296 220.845 345.296 212.068C345.296 202.956 339.181 199.27 330.862 199.27H320.228V224.871ZM490.589 222.592H502.745C511.862 222.592 517.178 219.705 517.178 210.554C517.178 202.957 512.639 199.274 502.745 199.274H490.589V222.592Z" fill="#2D2D2D"/>
</svg>
