<svg width="900" height="450" viewBox="0 0 900 450" fill="none" xmlns="http://www.w3.org/2000/svg">
<path d="M423.352 318.899C423.925 323.54 424.368 328.519 424.733 333.785C425.098 339.077 425.307 344.395 425.411 349.739C425.515 355.11 425.464 360.246 425.281 365.199L418.528 362.983C418.633 361.106 418.737 359.177 418.789 357.17C418.841 355.163 418.894 353.129 418.92 351.043L400.228 344.917C399.028 346.611 397.855 348.28 396.708 349.922C395.561 351.564 394.492 353.181 393.476 354.771L386.932 352.634C389.721 348.541 392.72 344.37 396.005 340.12C399.264 335.871 402.6 331.699 406.016 327.658C409.431 323.618 412.715 319.89 415.922 316.475L423.352 318.899ZM478.125 318.325C482.713 317.022 486.467 316.996 489.387 318.273C492.307 319.525 494.236 321.819 495.175 325.182C495.748 327.241 495.774 329.197 495.253 331.048C494.731 332.925 493.349 334.593 491.107 336.053C494.444 335.896 497.078 336.549 499.007 337.982C500.936 339.416 502.292 341.423 503.021 344.03C504.038 347.628 503.569 350.782 501.64 353.52C499.684 356.257 496.374 358.291 491.655 359.62L472.181 365.121L460.345 323.356L478.125 318.325ZM493.297 341.267C491.811 340.641 489.465 340.772 486.311 341.658L473.328 345.334L476.795 357.561L489.908 353.832C495.435 352.268 497.625 349.452 496.478 345.359C495.904 343.3 494.835 341.944 493.297 341.267ZM417.747 323.019C415.583 325.495 413.34 328.154 410.994 330.995C408.648 333.863 406.354 336.783 404.06 339.781L418.868 344.63C418.79 340.876 418.659 337.148 418.477 333.446C418.294 329.771 418.034 326.277 417.747 323.019ZM485.894 323.982C484.329 323.357 482.166 323.435 479.402 324.217L468.244 327.371L471.712 339.599L483.13 336.365C485.789 335.609 487.614 334.541 488.604 333.186C489.595 331.83 489.778 330.109 489.179 328.023C488.579 325.938 487.484 324.582 485.894 323.982ZM375.019 286.885L347.358 311.651L362.713 328.779L358.047 332.95L338.26 310.896L370.586 281.932L375.019 286.885ZM521.322 290.039C526.015 284.929 531.594 282.792 538.085 283.652L537.772 289.778C534.983 289.518 532.636 289.804 530.733 290.612C528.83 291.42 527.162 292.646 525.702 294.236L525.181 294.81C523.278 296.895 522.13 298.981 521.791 301.015C521.426 303.074 521.974 304.743 523.408 306.072C524.346 306.932 525.311 307.349 526.327 307.35C527.344 307.35 528.387 307.063 529.482 306.516C530.551 305.942 531.672 305.264 532.793 304.481L538.633 300.284C539.441 299.711 540.484 299.033 541.761 298.304C543.038 297.548 544.472 296.947 546.062 296.53C547.653 296.087 549.322 296.035 551.068 296.374C552.815 296.687 554.561 297.652 556.308 299.242C558.289 301.067 559.541 303.126 560.036 305.42C560.531 307.714 560.323 310.139 559.41 312.668C558.498 315.197 556.908 317.699 554.64 320.176L554.066 320.724C551.329 323.722 548.383 325.833 545.307 327.059C542.204 328.284 538.971 328.701 535.582 328.336L535.608 321.896C538.502 322.157 541.083 321.844 543.403 320.958C545.697 320.072 547.757 318.638 549.582 316.631L550.104 316.057C552.293 313.658 553.544 311.469 553.831 309.514C554.118 307.532 553.545 305.89 552.085 304.534C550.964 303.491 549.791 303.022 548.565 303.101C547.34 303.179 546.167 303.517 544.994 304.143C543.847 304.768 542.804 305.421 541.865 306.072L536.025 310.27C535.035 310.999 533.888 311.703 532.61 312.407C531.307 313.111 529.925 313.632 528.439 313.997C526.953 314.336 525.441 314.362 523.877 314.023C522.313 313.685 520.774 312.824 519.236 311.416C517.333 309.669 516.135 307.636 515.613 305.342C515.092 303.048 515.274 300.623 516.16 298.068C517.02 295.54 518.585 293.037 520.801 290.612L521.322 290.039ZM516.004 261.779L514.439 264.517H385.342L383.777 261.779L448.326 149.992H451.481L516.004 261.779ZM392.172 260.867H415.244L403.721 254.22L392.172 260.867ZM422.961 260.867H446.032L434.51 254.22L422.961 260.867ZM453.723 260.867H476.795L465.272 254.22L453.723 260.867ZM484.512 260.867H507.583L496.061 254.22L484.512 260.867ZM407.371 252.107L419.128 258.886L430.886 252.107L419.128 245.329L407.371 252.107ZM438.134 252.107L449.891 258.886L461.648 252.107L449.891 245.329L438.134 252.107ZM468.922 252.107L480.68 258.886L492.437 252.107L480.68 245.329L468.922 252.107ZM390.295 257.791L401.922 251.064V237.639L390.295 257.791ZM497.886 251.064L509.513 257.791L497.886 237.639V251.064ZM422.752 243.244L434.51 250.022L446.268 243.244L434.51 236.466L422.752 243.244ZM453.541 243.244L465.298 250.022L477.056 243.244L465.298 236.466L453.541 243.244ZM482.479 242.201L494.235 248.979V235.396L482.479 228.619V242.201ZM405.546 235.371V248.953L417.304 242.175V228.593L405.546 235.371ZM590.329 215.558C586.94 217.096 583.395 218.921 579.667 221.007C575.939 223.092 572.367 225.229 568.952 227.445C572.393 229.661 575.965 231.799 579.667 233.885C583.395 235.97 586.94 237.769 590.329 239.281V246.555C585.819 244.339 581.257 241.863 576.591 239.073C571.95 236.31 567.466 233.468 563.164 230.574H546.923V224.03H563.164C567.466 221.137 571.95 218.296 576.591 215.532C581.231 212.769 585.819 210.266 590.329 208.05V215.558ZM353.433 213.994C350.487 215.506 347.645 217.096 344.855 218.765C342.066 220.433 339.511 222.049 337.19 223.64V236.101H353.433V242.645H310V224.083C310 218.635 311.225 214.568 313.676 211.856C316.126 209.145 319.437 207.789 323.582 207.789C326.736 207.789 329.396 208.571 331.586 210.109C333.776 211.647 335.34 213.994 336.278 217.122C338.937 215.245 341.727 213.394 344.595 211.596C347.462 209.797 350.409 208.076 353.433 206.407V213.994ZM438.134 234.328L449.891 241.106L461.648 234.328L449.891 227.55L438.134 234.328ZM420.927 226.507V240.09L432.685 233.312V219.729L420.927 226.507ZM467.097 233.312L478.854 240.09V226.507L467.097 219.729V233.312ZM323.66 214.463C321.106 214.463 319.202 215.297 317.951 216.939C316.674 218.582 316.048 221.163 316.048 224.683V236.127H331.247V224.683C331.247 221.163 330.621 218.582 329.37 216.939C328.119 215.297 326.215 214.463 323.66 214.463ZM436.309 217.617V231.199L448.066 224.422V210.839L436.309 217.617ZM451.716 224.422L463.474 231.199V217.617L451.716 210.839V224.422ZM482.479 224.422L494.105 231.147L482.479 210.995V224.422ZM405.677 231.121L417.304 224.422V210.97L405.677 231.121ZM420.927 208.728V222.31L432.685 215.531V201.949L420.927 208.728ZM467.097 215.531L478.854 222.31V208.728L467.097 201.949V215.531ZM436.309 199.838V213.42L448.066 206.642V193.06L436.309 199.838ZM451.716 206.642L463.474 213.42V199.838L451.716 193.06V206.642ZM421.058 204.479L432.685 197.752V184.326L421.058 204.479ZM467.097 197.752L478.725 204.479L467.097 184.326V197.752ZM436.309 182.084V195.666L448.066 188.889V175.306L436.309 182.084ZM451.716 188.889L463.474 195.666V182.084L451.716 175.306V188.889ZM348.088 136.306L334.036 156.952L344.334 163.966L355.856 147.02L360.94 150.461L349.418 167.406L359.768 174.445L374.105 153.381L379.189 156.822L361.175 183.283L325.303 158.882L343.005 132.864L348.088 136.306ZM582.17 174.94L576.643 177.887L569.786 165.087L537.068 182.605L533.966 176.818L566.71 159.299L559.854 146.499L565.381 143.553L582.17 174.94ZM436.438 177.835L448.066 171.108V157.683L436.438 177.835ZM451.716 171.108L463.343 177.835L451.716 157.683V171.108ZM535.739 114.198L510.008 149.158L504.716 145.273L530.446 110.313L535.739 114.198ZM400.462 94.5938C403.903 97.7481 407.475 101.241 411.177 105.021C414.879 108.802 418.503 112.713 422.074 116.728C425.62 120.742 428.931 124.678 432.007 128.562L425.438 131.248C424.317 129.736 423.117 128.224 421.865 126.66C420.614 125.096 419.311 123.505 417.981 121.915L399.759 129.397C399.941 131.457 400.124 133.49 400.332 135.497C400.541 137.504 400.775 139.408 401.01 141.285L394.648 143.892C394.101 138.964 393.685 133.829 393.424 128.484C393.137 123.114 392.98 117.796 392.954 112.504C392.928 107.212 393.007 102.232 393.241 97.5654L400.462 94.5938ZM470.304 86.2773L463.135 122.723L485.711 127.155L484.512 133.308L455.392 127.599L463.786 85L470.304 86.2773ZM398.898 101.372C398.846 104.657 398.872 108.124 398.95 111.826C399.002 115.502 399.159 119.23 399.342 122.983L413.758 117.066C411.255 114.251 408.752 111.513 406.197 108.828C403.695 106.143 401.245 103.666 398.898 101.372Z" fill="black"/>
</svg>
