<svg width="900" height="450" viewBox="0 0 900 450" fill="none" xmlns="http://www.w3.org/2000/svg">
<mask id="mask0_2052_116" style="mask-type:luminance" maskUnits="userSpaceOnUse" x="319" y="95" width="261" height="261">
<path d="M579.5 95.5H319.5V355.5H579.5V95.5Z" fill="white"/>
</mask>
<g mask="url(#mask0_2052_116)">
<path d="M514.5 355.5C522.477 355.5 528.944 349.033 528.944 341.055V332.63C528.944 331.3 530.022 330.222 531.352 330.222H539.778C547.755 330.222 554.222 323.755 554.222 315.778V278.463C554.222 277.133 555.3 276.055 556.63 276.055H565.055C573.033 276.055 579.5 269.588 579.5 261.611V189.389C579.5 181.412 573.033 174.944 565.055 174.944H556.63C555.3 174.944 554.222 173.866 554.222 172.536V135.222C554.222 127.245 547.755 120.778 539.778 120.778H531.352C530.022 120.778 528.944 119.7 528.944 118.37V109.945C528.944 101.967 522.478 95.5 514.5 95.5C506.522 95.5 500.055 101.967 500.055 109.945C500.055 117.922 506.522 124.389 514.5 124.389H520.518C523.178 124.389 525.333 126.545 525.333 129.204V164.111C525.333 172.088 531.8 178.555 539.778 178.555H545.796C548.456 178.555 550.611 180.711 550.611 183.37V196.611C550.611 204.588 544.144 211.055 536.166 211.055H362.834C354.856 211.055 348.389 204.588 348.389 196.611V183.37C348.389 180.711 350.545 178.555 353.204 178.555H359.222C367.2 178.555 373.667 172.088 373.667 164.111V129.204C373.667 126.545 375.822 124.389 378.482 124.389H384.5C392.478 124.389 398.945 117.922 398.945 109.945C398.944 101.967 392.478 95.5 384.5 95.5C376.522 95.5 370.055 101.967 370.055 109.945V118.37C370.055 119.7 368.977 120.778 367.647 120.778H359.222C351.244 120.778 344.777 127.245 344.777 135.222V172.537C344.777 173.867 343.699 174.945 342.369 174.945H333.944C325.967 174.944 319.5 181.412 319.5 189.389V261.611C319.5 269.588 325.967 276.055 333.945 276.055H342.37C343.7 276.055 344.778 277.133 344.778 278.463V315.778C344.778 323.755 351.245 330.222 359.222 330.222H367.648C368.978 330.222 370.056 331.3 370.056 332.63V341.055C370.056 349.033 376.523 355.5 384.5 355.5C392.478 355.5 398.945 349.033 398.945 341.055C398.945 333.078 392.478 326.611 384.5 326.611H378.482C375.822 326.611 373.667 324.456 373.667 321.796V286.889C373.667 278.912 367.2 272.445 359.222 272.445H353.204C350.545 272.445 348.389 270.289 348.389 267.63V254.389C348.389 246.412 354.856 239.945 362.834 239.945H536.167C544.145 239.945 550.612 246.412 550.612 254.389V267.63C550.612 270.289 548.456 272.445 545.797 272.445H539.778C531.801 272.445 525.334 278.912 525.334 286.889V321.796C525.334 324.456 523.178 326.611 520.519 326.611H514.5C506.523 326.611 500.056 333.078 500.056 341.055C500.055 349.033 506.522 355.5 514.5 355.5Z" fill="#2D2D2D"/>
<path d="M471.167 211.056C479.144 211.056 485.611 204.588 485.611 196.611V183.37C485.611 180.711 483.455 178.555 480.797 178.555H474.778C466.8 178.555 460.333 172.088 460.333 164.111V129.204C460.333 126.545 458.178 124.389 455.519 124.389H449.5C441.522 124.389 435.055 117.922 435.055 109.945C435.055 101.967 441.522 95.5 449.5 95.5C457.477 95.5 463.944 101.967 463.944 109.945V118.37C463.944 119.7 465.022 120.778 466.352 120.778H474.778C482.755 120.778 489.222 127.245 489.222 135.222V172.537C489.222 173.867 490.3 174.945 491.63 174.945H500.056C508.033 174.945 514.5 181.412 514.5 189.389V261.611C514.5 269.589 508.033 276.056 500.056 276.056H491.63C490.3 276.056 489.222 277.134 489.222 278.464V315.778C489.222 323.756 482.755 330.223 474.778 330.223H466.352C465.022 330.223 463.944 331.301 463.944 332.631V341.056C463.944 349.034 457.477 355.501 449.5 355.501C441.522 355.501 435.055 349.034 435.055 341.056C435.055 333.079 441.522 326.612 449.5 326.612H455.519C458.178 326.612 460.333 324.456 460.333 321.797V286.89C460.333 278.913 466.8 272.446 474.778 272.446H480.797C483.455 272.446 485.611 270.29 485.611 267.631V254.39C485.611 246.413 479.144 239.945 471.167 239.945" fill="#2D2D2D"/>
<path d="M427.834 239.945C419.856 239.945 413.389 246.412 413.389 254.389V267.63C413.389 270.289 415.544 272.445 418.204 272.445H424.222C432.2 272.445 438.667 278.912 438.667 286.889V321.796C438.667 324.456 440.822 326.611 443.482 326.611H449.5C457.478 326.611 463.945 333.078 463.945 341.055C463.945 349.033 457.478 355.5 449.5 355.5C441.523 355.5 435.056 349.033 435.056 341.055V332.63C435.056 331.3 433.978 330.222 432.648 330.222H424.222C416.245 330.222 409.778 323.755 409.778 315.778V278.463C409.778 277.133 408.7 276.055 407.37 276.055H398.945C390.967 276.055 384.5 269.588 384.5 261.611V189.389C384.5 181.412 390.967 174.944 398.945 174.944H407.37C408.7 174.944 409.778 173.866 409.778 172.536V135.222C409.778 127.245 416.245 120.778 424.222 120.778H432.648C433.978 120.778 435.056 119.7 435.056 118.37V109.945C435.056 101.967 441.523 95.5 449.5 95.5C457.478 95.5 463.945 101.967 463.945 109.945C463.945 117.922 457.478 124.389 449.5 124.389H443.482C440.822 124.389 438.667 126.545 438.667 129.204V164.111C438.667 172.088 432.2 178.555 424.222 178.555H418.204C415.544 178.555 413.389 180.711 413.389 183.37V196.611C413.389 204.588 419.856 211.055 427.834 211.055" fill="#2D2D2D"/>
</g>
</svg>
