<svg width="900" height="450" viewBox="0 0 900 450" fill="none" xmlns="http://www.w3.org/2000/svg">
<g clip-path="url(#clip0_2056_268)">
<path d="M391.73 188.195C389.972 187.431 387.769 186.99 383.463 186.99H367.704V207.051H382.582C387.1 207.051 389.751 206.498 391.846 205.513C395.379 203.755 397.141 200.651 397.141 196.474C397.141 192.717 395.15 189.745 391.73 188.195ZM387.881 158.102C386.219 157.337 384.236 156.892 381.04 156.892H367.704V175.856H380.272C384.236 175.856 386.663 175.191 388.421 174.194C391.293 172.552 392.727 169.788 392.727 166.26C392.727 162.623 391.069 159.652 387.881 158.102ZM355.244 218.297V145.65H381.917C387.653 145.65 391.393 146.531 394.489 147.961C401.87 151.494 405.183 158.214 405.183 164.386C405.183 171.339 402.307 176.068 396.467 179.605V179.825C404.842 181.691 409.916 187.53 409.916 196.358C409.916 206.166 403.969 213.663 393.824 216.755C390.184 217.852 386.219 218.297 379.931 218.297H355.244Z" fill="#2D2D2D"/>
<path d="M495.064 145.65H482.608V218.297H495.064V145.65Z" fill="#2D2D2D"/>
<path d="M585.494 145.65H573.051V218.297H585.494V145.65Z" fill="#2D2D2D"/>
<path d="M625.728 144.988C633.558 144.988 641.496 146.867 645.893 149.065L645.685 160.972C639.397 157.888 633.001 155.894 625.4 155.894C618.576 155.894 612.724 158.001 612.724 163.732C612.724 178.61 650.103 172.659 650.103 197.233C650.103 210.798 638.633 219.381 621.98 219.381C610.638 219.381 602.808 216.185 597.405 212.897L602.575 202.752C606.997 205.512 614.058 208.484 622.424 208.484C629.926 208.484 636.871 205.608 636.871 199.004C636.871 183.448 599.832 190.289 599.832 165.49C599.832 152.257 610.405 144.988 625.728 144.988Z" fill="#2D2D2D"/>
<path d="M709.069 145.65H721.524V218.297H709.069V186.99H673.788V218.297H661.333V145.65H673.788V175.416H709.069V145.65Z" fill="#2D2D2D"/>
<path d="M382.748 231.055C390.682 231.055 396.741 232.609 402.925 235.352L399.168 245.937C395.64 244.292 391.006 242.309 384.078 242.309C370.292 242.309 361.702 253.987 361.702 268.205C361.702 282.547 369.739 294.222 384.078 294.222C391.006 294.222 395.64 292.248 399.168 290.577L402.925 301.175C396.741 303.922 390.682 305.464 382.748 305.464C361.024 305.464 348.577 290.257 348.577 268.43C348.577 248.04 361.024 231.055 382.748 231.055Z" fill="#2D2D2D"/>
<path d="M655.298 231.055C663.236 231.055 669.296 232.609 675.463 235.352L671.723 245.937C668.19 244.292 663.556 242.309 656.612 242.309C642.83 242.309 634.236 253.987 634.236 268.205C634.236 282.547 642.286 294.222 656.612 294.222C663.556 294.222 668.19 292.248 671.723 290.577L675.463 301.175C669.296 303.922 663.236 305.464 655.298 305.464C633.571 305.464 621.115 290.257 621.115 268.43C621.115 248.04 633.571 231.055 655.298 231.055Z" fill="#2D2D2D"/>
<path d="M460.997 268.201C460.997 252.333 451.97 242.193 439.727 242.193C427.495 242.193 418.448 252.333 418.448 268.313C418.448 284.202 427.495 294.33 439.727 294.33C451.974 294.33 460.997 284.202 460.997 268.201ZM474.126 267.972C474.126 289.812 460.228 305.459 439.731 305.459C419.013 305.459 405.34 290.357 405.34 268.542C405.34 246.714 419.225 231.055 439.731 231.055C460.465 231.055 474.126 246.166 474.126 267.972Z" fill="#2D2D2D"/>
<path d="M482.546 277.015V231.719H495.001V277.464C495.001 289.579 501.51 294.109 511.866 294.109C522.452 294.109 528.74 289.579 528.74 277.464V231.719H541.195V277.015C541.195 296.756 529.941 305.459 511.659 305.459C493.68 305.459 482.546 296.756 482.546 277.015Z" fill="#2D2D2D"/>
<path d="M564.606 251.461H564.386C564.606 253.876 564.714 257.737 564.714 261.161V304.359H552.259V231.729H565.712L599.425 281.218H599.654C599.425 278.791 599.325 274.93 599.325 271.506V231.729H611.773V304.359H600.759L564.606 251.461Z" fill="#2D2D2D"/>
<path d="M697.686 231.721H685.251V304.367H697.686V231.721Z" fill="#2D2D2D"/>
<path d="M721.524 293.113H749.959V304.367H709.068V231.721H721.524V293.113Z" fill="#2D2D2D"/>
<path d="M504.561 145.662V157.016H527.809V218.296H540.265V157.016H563.526V145.662H504.561Z" fill="#2D2D2D"/>
<path d="M443.779 156.904H430.879V178.956H443.222C452.158 178.956 456.343 174.322 456.343 167.705C456.343 161.754 452.486 156.904 443.779 156.904ZM460.191 218.296C449.618 196.369 446.859 190.189 442.449 190.189H430.879V218.296H418.432V145.666H443.002C461.733 145.666 468.906 155.586 468.906 166.604C468.906 176.304 463.287 182.808 455.457 185.219V185.339C458.757 187.218 462.282 194.05 474.409 218.296H460.191Z" fill="#2D2D2D"/>
<path d="M233.091 180.547C233.091 203.493 214.489 222.095 191.543 222.095C168.602 222.095 150 203.493 150 180.547C150 157.602 168.602 139 191.543 139C214.489 139.004 233.091 157.602 233.091 180.547Z" fill="#2D2D2D"/>
<path d="M322 180.547C322 203.493 303.398 222.095 280.453 222.095C257.511 222.095 238.909 203.493 238.909 180.547C238.909 157.602 257.511 139 280.453 139C303.398 139.004 322 157.602 322 180.547Z" fill="#2D2D2D"/>
<path d="M233.091 269.457C233.091 292.407 214.489 311.001 191.543 311.001C168.602 311.001 150 292.407 150 269.457C150 246.508 168.602 227.914 191.543 227.914C214.489 227.914 233.091 246.508 233.091 269.457Z" fill="#2D2D2D"/>
<path d="M322 269.457C322 292.407 303.398 311.001 280.453 311.001C257.511 311.001 238.909 292.407 238.909 269.457C238.909 246.508 257.511 227.914 280.453 227.914C303.398 227.914 322 246.508 322 269.457Z" fill="#2D2D2D"/>
</g>
<defs>
<clipPath id="clip0_2056_268">
<rect width="600" height="172" fill="white" transform="translate(150 139)"/>
</clipPath>
</defs>
</svg>
