<svg width="800" height="800" viewBox="0 0 800 800" fill="none" xmlns="http://www.w3.org/2000/svg">
<rect x="18.0029" y="399.996" width="170" height="180" transform="rotate(-45 18.0029 399.996)" fill="#D0D0D0"/>
<rect x="145.282" y="527.277" width="170" height="180" transform="rotate(-45 145.282 527.277)" fill="#D0D0D0"/>
<rect x="392.77" y="534.348" width="170" height="180" transform="rotate(-45 392.77 534.348)" fill="#D0D0D0"/>
<path d="M272.561 654.559L392.769 534.35L520.048 661.63L470.55 711.127C431.498 750.18 368.182 750.18 329.129 711.127L272.561 654.559Z" fill="#D0D0D0"/>
<path d="M279.632 138.371L329.129 88.8736C368.182 49.8212 431.498 49.8212 470.551 88.8736L527.119 145.442L406.911 265.65L279.632 138.371Z" fill="#D0D0D0"/>
<rect x="406.911" y="265.645" width="170" height="180" transform="rotate(-45 406.911 265.645)" fill="#D0D0D0"/>
<rect x="159.424" y="258.574" width="170" height="180" transform="rotate(-45 159.424 258.574)" fill="#D0D0D0"/>
<rect x="534.19" y="392.926" width="170" height="180" transform="rotate(-45 534.19 392.926)" fill="#D0D0D0"/>
</svg>
