<svg width="800" height="800" viewBox="0 0 800 800" fill="none" xmlns="http://www.w3.org/2000/svg">
<path d="M392.767 534.35L512.975 414.142L640.254 541.421L509.439 672.236C473.169 708.506 455.034 726.642 434.449 734.236C412.111 742.477 387.565 742.477 365.226 734.236C344.641 726.642 326.506 708.506 290.236 672.236L18 400L138.208 279.792L392.767 534.35ZM290.236 127.764C326.506 91.4937 344.642 73.359 365.227 65.765C387.565 57.5238 412.111 57.5238 434.45 65.765C455.034 73.3591 473.169 91.494 509.439 127.764L781.675 400L661.467 520.208L406.909 265.65L286.701 385.858L159.421 258.579L290.236 127.764Z" fill="#D0D0D0"/>
</svg>
